<mxfile host="app.diagrams.net" modified="2023-06-25T07:20:10.842Z" agent="Mozilla/5.0 (Windows NT 10.0; Win64; x64) AppleWebKit/537.36 (KHTML, like Gecko) Chrome/113.0.0.0 Safari/537.36 OPR/99.0.0.0" etag="toERDeznzOFWjhOMJf4-" version="21.5.0">
  <diagram name="Halaman-1" id="66dkffTbdJDaujBPnoAA">
    <mxGraphModel dx="1633" dy="758" grid="1" gridSize="10" guides="1" tooltips="1" connect="1" arrows="1" fold="1" page="1" pageScale="1" pageWidth="850" pageHeight="1100" math="0" shadow="0">
      <root>
        <mxCell id="0" />
        <mxCell id="1" parent="0" />
        <mxCell id="JkQNoZzXG15EF7CzewIj-1" value="" style="ellipse;whiteSpace=wrap;html=1;" vertex="1" parent="1">
          <mxGeometry x="60" y="50" width="60" height="40" as="geometry" />
        </mxCell>
        <mxCell id="JkQNoZzXG15EF7CzewIj-2" value="" style="ellipse;whiteSpace=wrap;html=1;" vertex="1" parent="1">
          <mxGeometry x="160" y="120" width="60" height="40" as="geometry" />
        </mxCell>
        <mxCell id="JkQNoZzXG15EF7CzewIj-3" value="" style="ellipse;whiteSpace=wrap;html=1;" vertex="1" parent="1">
          <mxGeometry x="240" y="50" width="60" height="40" as="geometry" />
        </mxCell>
        <mxCell id="JkQNoZzXG15EF7CzewIj-4" value="" style="ellipse;whiteSpace=wrap;html=1;" vertex="1" parent="1">
          <mxGeometry x="160" y="50" width="60" height="40" as="geometry" />
        </mxCell>
        <mxCell id="JkQNoZzXG15EF7CzewIj-6" value="" style="ellipse;whiteSpace=wrap;html=1;" vertex="1" parent="1">
          <mxGeometry x="60" y="120" width="60" height="40" as="geometry" />
        </mxCell>
        <mxCell id="JkQNoZzXG15EF7CzewIj-7" value="" style="ellipse;whiteSpace=wrap;html=1;" vertex="1" parent="1">
          <mxGeometry x="250" y="120" width="60" height="40" as="geometry" />
        </mxCell>
        <mxCell id="JkQNoZzXG15EF7CzewIj-8" value="" style="ellipse;whiteSpace=wrap;html=1;" vertex="1" parent="1">
          <mxGeometry x="330" y="120" width="60" height="40" as="geometry" />
        </mxCell>
        <mxCell id="JkQNoZzXG15EF7CzewIj-9" value="" style="ellipse;whiteSpace=wrap;html=1;" vertex="1" parent="1">
          <mxGeometry x="20" y="180" width="60" height="40" as="geometry" />
        </mxCell>
        <mxCell id="JkQNoZzXG15EF7CzewIj-10" value="" style="endArrow=none;html=1;rounded=0;entryX=0.5;entryY=1;entryDx=0;entryDy=0;exitX=0.5;exitY=0;exitDx=0;exitDy=0;" edge="1" parent="1" source="JkQNoZzXG15EF7CzewIj-2" target="JkQNoZzXG15EF7CzewIj-4">
          <mxGeometry width="50" height="50" relative="1" as="geometry">
            <mxPoint x="180" y="130" as="sourcePoint" />
            <mxPoint x="230" y="80" as="targetPoint" />
          </mxGeometry>
        </mxCell>
        <mxCell id="JkQNoZzXG15EF7CzewIj-12" value="" style="endArrow=none;html=1;rounded=0;entryX=0.383;entryY=0.975;entryDx=0;entryDy=0;exitX=0.5;exitY=0;exitDx=0;exitDy=0;entryPerimeter=0;" edge="1" parent="1" source="JkQNoZzXG15EF7CzewIj-2" target="JkQNoZzXG15EF7CzewIj-3">
          <mxGeometry width="50" height="50" relative="1" as="geometry">
            <mxPoint x="200" y="130" as="sourcePoint" />
            <mxPoint x="200" y="100" as="targetPoint" />
          </mxGeometry>
        </mxCell>
        <mxCell id="JkQNoZzXG15EF7CzewIj-13" value="" style="endArrow=none;html=1;rounded=0;exitX=0.5;exitY=0;exitDx=0;exitDy=0;" edge="1" parent="1" source="JkQNoZzXG15EF7CzewIj-2">
          <mxGeometry width="50" height="50" relative="1" as="geometry">
            <mxPoint x="210" y="140" as="sourcePoint" />
            <mxPoint x="110" y="90" as="targetPoint" />
            <Array as="points">
              <mxPoint x="100" y="90" />
            </Array>
          </mxGeometry>
        </mxCell>
        <mxCell id="JkQNoZzXG15EF7CzewIj-14" value="" style="rounded=0;whiteSpace=wrap;html=1;fillColor=#1ba1e2;fontColor=#ffffff;strokeColor=#006EAF;" vertex="1" parent="1">
          <mxGeometry x="140" y="250" width="110" height="40" as="geometry" />
        </mxCell>
        <mxCell id="JkQNoZzXG15EF7CzewIj-15" value="" style="endArrow=none;html=1;rounded=0;entryX=0.5;entryY=1;entryDx=0;entryDy=0;" edge="1" parent="1" target="JkQNoZzXG15EF7CzewIj-2">
          <mxGeometry width="50" height="50" relative="1" as="geometry">
            <mxPoint x="190" y="250" as="sourcePoint" />
            <mxPoint x="240" y="200" as="targetPoint" />
          </mxGeometry>
        </mxCell>
        <mxCell id="JkQNoZzXG15EF7CzewIj-16" value="" style="endArrow=none;html=1;rounded=0;entryX=0.333;entryY=1;entryDx=0;entryDy=0;entryPerimeter=0;" edge="1" parent="1" target="JkQNoZzXG15EF7CzewIj-7">
          <mxGeometry width="50" height="50" relative="1" as="geometry">
            <mxPoint x="190" y="250" as="sourcePoint" />
            <mxPoint x="240" y="200" as="targetPoint" />
          </mxGeometry>
        </mxCell>
        <mxCell id="JkQNoZzXG15EF7CzewIj-17" value="" style="endArrow=none;html=1;rounded=0;entryX=0.5;entryY=1;entryDx=0;entryDy=0;exitX=0.5;exitY=0;exitDx=0;exitDy=0;" edge="1" parent="1" source="JkQNoZzXG15EF7CzewIj-14" target="JkQNoZzXG15EF7CzewIj-8">
          <mxGeometry width="50" height="50" relative="1" as="geometry">
            <mxPoint x="200" y="260" as="sourcePoint" />
            <mxPoint x="280" y="170" as="targetPoint" />
          </mxGeometry>
        </mxCell>
        <mxCell id="JkQNoZzXG15EF7CzewIj-18" value="" style="ellipse;whiteSpace=wrap;html=1;" vertex="1" parent="1">
          <mxGeometry x="340" y="180" width="60" height="40" as="geometry" />
        </mxCell>
        <mxCell id="JkQNoZzXG15EF7CzewIj-19" value="" style="endArrow=none;html=1;rounded=0;entryX=0;entryY=1;entryDx=0;entryDy=0;" edge="1" parent="1" target="JkQNoZzXG15EF7CzewIj-18">
          <mxGeometry width="50" height="50" relative="1" as="geometry">
            <mxPoint x="200" y="250" as="sourcePoint" />
            <mxPoint x="370" y="170" as="targetPoint" />
          </mxGeometry>
        </mxCell>
        <mxCell id="JkQNoZzXG15EF7CzewIj-20" value="" style="endArrow=none;html=1;rounded=0;entryX=0.5;entryY=1;entryDx=0;entryDy=0;" edge="1" parent="1" target="JkQNoZzXG15EF7CzewIj-9">
          <mxGeometry width="50" height="50" relative="1" as="geometry">
            <mxPoint x="190" y="250" as="sourcePoint" />
            <mxPoint x="359" y="224" as="targetPoint" />
          </mxGeometry>
        </mxCell>
        <mxCell id="JkQNoZzXG15EF7CzewIj-21" value="" style="endArrow=none;html=1;rounded=0;entryX=1;entryY=1;entryDx=0;entryDy=0;exitX=0.5;exitY=0;exitDx=0;exitDy=0;" edge="1" parent="1" source="JkQNoZzXG15EF7CzewIj-14" target="JkQNoZzXG15EF7CzewIj-6">
          <mxGeometry width="50" height="50" relative="1" as="geometry">
            <mxPoint x="220" y="270" as="sourcePoint" />
            <mxPoint x="369" y="234" as="targetPoint" />
          </mxGeometry>
        </mxCell>
        <mxCell id="JkQNoZzXG15EF7CzewIj-22" value="" style="rhombus;whiteSpace=wrap;html=1;fillColor=#1ba1e2;fontColor=#ffffff;strokeColor=#006EAF;" vertex="1" parent="1">
          <mxGeometry x="120" y="450" width="170" height="80" as="geometry" />
        </mxCell>
        <mxCell id="JkQNoZzXG15EF7CzewIj-23" value="" style="rhombus;whiteSpace=wrap;html=1;fillColor=#1ba1e2;fontColor=#ffffff;strokeColor=#006EAF;" vertex="1" parent="1">
          <mxGeometry x="300" y="520" width="170" height="80" as="geometry" />
        </mxCell>
        <mxCell id="JkQNoZzXG15EF7CzewIj-24" value="" style="rhombus;whiteSpace=wrap;html=1;fillColor=#1ba1e2;fontColor=#ffffff;strokeColor=#006EAF;" vertex="1" parent="1">
          <mxGeometry x="430" y="230" width="170" height="80" as="geometry" />
        </mxCell>
        <mxCell id="JkQNoZzXG15EF7CzewIj-25" value="" style="rhombus;whiteSpace=wrap;html=1;fillColor=#1ba1e2;fontColor=#ffffff;strokeColor=#006EAF;" vertex="1" parent="1">
          <mxGeometry x="430" y="340" width="170" height="80" as="geometry" />
        </mxCell>
        <mxCell id="JkQNoZzXG15EF7CzewIj-26" value="" style="rhombus;whiteSpace=wrap;html=1;fillColor=#1ba1e2;fontColor=#ffffff;strokeColor=#006EAF;" vertex="1" parent="1">
          <mxGeometry x="520" y="510" width="170" height="80" as="geometry" />
        </mxCell>
        <mxCell id="JkQNoZzXG15EF7CzewIj-30" value="" style="shape=partialRectangle;whiteSpace=wrap;html=1;left=0;right=0;fillColor=none;rotation=90;" vertex="1" parent="1">
          <mxGeometry x="501.25" y="321.25" width="27.5" height="10" as="geometry" />
        </mxCell>
        <mxCell id="JkQNoZzXG15EF7CzewIj-32" value="" style="shape=partialRectangle;whiteSpace=wrap;html=1;left=0;right=0;fillColor=none;rotation=-180;" vertex="1" parent="1">
          <mxGeometry x="256" y="265" width="174" height="10" as="geometry" />
        </mxCell>
        <mxCell id="JkQNoZzXG15EF7CzewIj-33" value="" style="endArrow=none;html=1;rounded=0;entryX=0;entryY=0.5;entryDx=0;entryDy=0;exitX=0.445;exitY=1.075;exitDx=0;exitDy=0;exitPerimeter=0;" edge="1" parent="1" source="JkQNoZzXG15EF7CzewIj-14" target="JkQNoZzXG15EF7CzewIj-22">
          <mxGeometry width="50" height="50" relative="1" as="geometry">
            <mxPoint x="200" y="260" as="sourcePoint" />
            <mxPoint x="60" y="230" as="targetPoint" />
          </mxGeometry>
        </mxCell>
        <mxCell id="JkQNoZzXG15EF7CzewIj-34" value="" style="endArrow=none;html=1;rounded=0;entryX=1;entryY=0.5;entryDx=0;entryDy=0;" edge="1" parent="1" target="JkQNoZzXG15EF7CzewIj-22">
          <mxGeometry width="50" height="50" relative="1" as="geometry">
            <mxPoint x="190" y="290" as="sourcePoint" />
            <mxPoint x="70" y="240" as="targetPoint" />
          </mxGeometry>
        </mxCell>
        <mxCell id="JkQNoZzXG15EF7CzewIj-35" value="" style="endArrow=none;html=1;rounded=0;entryX=0.5;entryY=0;entryDx=0;entryDy=0;exitX=1;exitY=1;exitDx=0;exitDy=0;" edge="1" parent="1" source="JkQNoZzXG15EF7CzewIj-14" target="JkQNoZzXG15EF7CzewIj-23">
          <mxGeometry width="50" height="50" relative="1" as="geometry">
            <mxPoint x="200" y="300" as="sourcePoint" />
            <mxPoint x="300" y="500" as="targetPoint" />
          </mxGeometry>
        </mxCell>
        <mxCell id="JkQNoZzXG15EF7CzewIj-36" value="" style="ellipse;whiteSpace=wrap;html=1;" vertex="1" parent="1">
          <mxGeometry x="365" y="300" width="60" height="40" as="geometry" />
        </mxCell>
        <mxCell id="JkQNoZzXG15EF7CzewIj-37" value="" style="endArrow=none;html=1;rounded=0;entryX=1;entryY=1;entryDx=0;entryDy=0;" edge="1" parent="1" target="JkQNoZzXG15EF7CzewIj-36">
          <mxGeometry width="50" height="50" relative="1" as="geometry">
            <mxPoint x="450" y="371.25" as="sourcePoint" />
            <mxPoint x="450" y="281.25" as="targetPoint" />
          </mxGeometry>
        </mxCell>
        <mxCell id="JkQNoZzXG15EF7CzewIj-39" value="" style="shape=partialRectangle;whiteSpace=wrap;html=1;left=0;right=0;fillColor=none;rotation=-135;" vertex="1" parent="1">
          <mxGeometry x="193.7" y="404.61" width="391.8" height="10" as="geometry" />
        </mxCell>
        <mxCell id="JkQNoZzXG15EF7CzewIj-40" value="" style="ellipse;whiteSpace=wrap;html=1;" vertex="1" parent="1">
          <mxGeometry x="680" y="450" width="60" height="40" as="geometry" />
        </mxCell>
        <mxCell id="JkQNoZzXG15EF7CzewIj-42" value="" style="endArrow=none;html=1;rounded=0;entryX=0;entryY=1;entryDx=0;entryDy=0;" edge="1" parent="1" target="JkQNoZzXG15EF7CzewIj-40">
          <mxGeometry width="50" height="50" relative="1" as="geometry">
            <mxPoint x="654" y="527.25" as="sourcePoint" />
            <mxPoint x="620" y="490" as="targetPoint" />
          </mxGeometry>
        </mxCell>
        <mxCell id="JkQNoZzXG15EF7CzewIj-43" value="" style="shape=partialRectangle;whiteSpace=wrap;html=1;left=0;right=0;fillColor=none;" vertex="1" parent="1">
          <mxGeometry x="690" y="545" width="200" height="10" as="geometry" />
        </mxCell>
        <mxCell id="JkQNoZzXG15EF7CzewIj-44" value="" style="ellipse;whiteSpace=wrap;html=1;" vertex="1" parent="1">
          <mxGeometry x="620" y="300" width="170" height="46.25" as="geometry" />
        </mxCell>
        <mxCell id="JkQNoZzXG15EF7CzewIj-46" value="" style="rounded=0;whiteSpace=wrap;html=1;fillColor=#1ba1e2;fontColor=#ffffff;strokeColor=#006EAF;" vertex="1" parent="1">
          <mxGeometry x="900" y="306.25" width="110" height="40" as="geometry" />
        </mxCell>
        <mxCell id="JkQNoZzXG15EF7CzewIj-47" value="" style="rhombus;whiteSpace=wrap;html=1;fillColor=#1ba1e2;fontColor=#ffffff;strokeColor=#006EAF;" vertex="1" parent="1">
          <mxGeometry x="890" y="400" width="120" height="70" as="geometry" />
        </mxCell>
        <mxCell id="JkQNoZzXG15EF7CzewIj-49" value="" style="rounded=0;whiteSpace=wrap;html=1;fillColor=#1ba1e2;fontColor=#ffffff;strokeColor=#006EAF;" vertex="1" parent="1">
          <mxGeometry x="895" y="530" width="110" height="40" as="geometry" />
        </mxCell>
        <mxCell id="JkQNoZzXG15EF7CzewIj-50" value="" style="ellipse;whiteSpace=wrap;html=1;" vertex="1" parent="1">
          <mxGeometry x="870" y="225" width="60" height="40" as="geometry" />
        </mxCell>
        <mxCell id="JkQNoZzXG15EF7CzewIj-51" value="" style="ellipse;whiteSpace=wrap;html=1;" vertex="1" parent="1">
          <mxGeometry x="980" y="225" width="60" height="40" as="geometry" />
        </mxCell>
        <mxCell id="JkQNoZzXG15EF7CzewIj-52" value="Fname" style="text;html=1;strokeColor=none;fillColor=none;align=center;verticalAlign=middle;whiteSpace=wrap;rounded=0;" vertex="1" parent="1">
          <mxGeometry x="60" y="55" width="60" height="30" as="geometry" />
        </mxCell>
        <mxCell id="JkQNoZzXG15EF7CzewIj-53" value="employee" style="text;html=1;strokeColor=none;fillColor=none;align=center;verticalAlign=middle;whiteSpace=wrap;rounded=0;" vertex="1" parent="1">
          <mxGeometry x="160" y="255" width="60" height="30" as="geometry" />
        </mxCell>
        <mxCell id="JkQNoZzXG15EF7CzewIj-54" value="supervision" style="text;html=1;strokeColor=none;fillColor=none;align=center;verticalAlign=middle;whiteSpace=wrap;rounded=0;" vertex="1" parent="1">
          <mxGeometry x="175" y="480" width="60" height="30" as="geometry" />
        </mxCell>
        <mxCell id="JkQNoZzXG15EF7CzewIj-55" value="ssn" style="text;html=1;strokeColor=none;fillColor=none;align=center;verticalAlign=middle;whiteSpace=wrap;rounded=0;" vertex="1" parent="1">
          <mxGeometry x="20" y="185" width="60" height="30" as="geometry" />
        </mxCell>
        <mxCell id="JkQNoZzXG15EF7CzewIj-56" value="bdate" style="text;html=1;strokeColor=none;fillColor=none;align=center;verticalAlign=middle;whiteSpace=wrap;rounded=0;" vertex="1" parent="1">
          <mxGeometry x="60" y="125" width="60" height="30" as="geometry" />
        </mxCell>
        <mxCell id="JkQNoZzXG15EF7CzewIj-57" value="minit" style="text;html=1;strokeColor=none;fillColor=none;align=center;verticalAlign=middle;whiteSpace=wrap;rounded=0;" vertex="1" parent="1">
          <mxGeometry x="160" y="55" width="60" height="30" as="geometry" />
        </mxCell>
        <mxCell id="JkQNoZzXG15EF7CzewIj-58" value="name" style="text;html=1;strokeColor=none;fillColor=none;align=center;verticalAlign=middle;whiteSpace=wrap;rounded=0;" vertex="1" parent="1">
          <mxGeometry x="160" y="125" width="60" height="30" as="geometry" />
        </mxCell>
        <mxCell id="JkQNoZzXG15EF7CzewIj-59" value="lname" style="text;html=1;strokeColor=none;fillColor=none;align=center;verticalAlign=middle;whiteSpace=wrap;rounded=0;" vertex="1" parent="1">
          <mxGeometry x="235" y="55" width="60" height="30" as="geometry" />
        </mxCell>
        <mxCell id="JkQNoZzXG15EF7CzewIj-60" value="address" style="text;html=1;strokeColor=none;fillColor=none;align=center;verticalAlign=middle;whiteSpace=wrap;rounded=0;" vertex="1" parent="1">
          <mxGeometry x="250" y="125" width="60" height="30" as="geometry" />
        </mxCell>
        <mxCell id="JkQNoZzXG15EF7CzewIj-61" value="salary" style="text;html=1;strokeColor=none;fillColor=none;align=center;verticalAlign=middle;whiteSpace=wrap;rounded=0;" vertex="1" parent="1">
          <mxGeometry x="330" y="125" width="60" height="30" as="geometry" />
        </mxCell>
        <mxCell id="JkQNoZzXG15EF7CzewIj-62" value="SEX" style="text;html=1;strokeColor=none;fillColor=none;align=center;verticalAlign=middle;whiteSpace=wrap;rounded=0;" vertex="1" parent="1">
          <mxGeometry x="340" y="185" width="60" height="30" as="geometry" />
        </mxCell>
        <mxCell id="JkQNoZzXG15EF7CzewIj-63" value="start_date" style="text;html=1;strokeColor=none;fillColor=none;align=center;verticalAlign=middle;whiteSpace=wrap;rounded=0;" vertex="1" parent="1">
          <mxGeometry x="370" y="305" width="49.6" height="30" as="geometry" />
        </mxCell>
        <mxCell id="JkQNoZzXG15EF7CzewIj-64" value="works_for" style="text;html=1;strokeColor=none;fillColor=none;align=center;verticalAlign=middle;whiteSpace=wrap;rounded=0;" vertex="1" parent="1">
          <mxGeometry x="485" y="255" width="60" height="30" as="geometry" />
        </mxCell>
        <mxCell id="JkQNoZzXG15EF7CzewIj-65" value="manages" style="text;html=1;strokeColor=none;fillColor=none;align=center;verticalAlign=middle;whiteSpace=wrap;rounded=0;" vertex="1" parent="1">
          <mxGeometry x="485" y="360" width="60" height="30" as="geometry" />
        </mxCell>
        <mxCell id="JkQNoZzXG15EF7CzewIj-66" value="dependents_of" style="text;html=1;strokeColor=none;fillColor=none;align=center;verticalAlign=middle;whiteSpace=wrap;rounded=0;" vertex="1" parent="1">
          <mxGeometry x="355" y="545" width="60" height="30" as="geometry" />
        </mxCell>
        <mxCell id="JkQNoZzXG15EF7CzewIj-67" value="works_on" style="text;html=1;strokeColor=none;fillColor=none;align=center;verticalAlign=middle;whiteSpace=wrap;rounded=0;" vertex="1" parent="1">
          <mxGeometry x="575" y="540" width="60" height="30" as="geometry" />
        </mxCell>
        <mxCell id="JkQNoZzXG15EF7CzewIj-68" value="hours" style="text;html=1;strokeColor=none;fillColor=none;align=center;verticalAlign=middle;whiteSpace=wrap;rounded=0;" vertex="1" parent="1">
          <mxGeometry x="680" y="455" width="60" height="30" as="geometry" />
        </mxCell>
        <mxCell id="JkQNoZzXG15EF7CzewIj-69" value="project" style="text;html=1;strokeColor=none;fillColor=none;align=center;verticalAlign=middle;whiteSpace=wrap;rounded=0;" vertex="1" parent="1">
          <mxGeometry x="920" y="535" width="65" height="30" as="geometry" />
        </mxCell>
        <mxCell id="JkQNoZzXG15EF7CzewIj-70" value="controls" style="text;html=1;strokeColor=none;fillColor=none;align=center;verticalAlign=middle;whiteSpace=wrap;rounded=0;" vertex="1" parent="1">
          <mxGeometry x="920" y="420" width="60" height="30" as="geometry" />
        </mxCell>
        <mxCell id="JkQNoZzXG15EF7CzewIj-71" value="Text" style="text;html=1;strokeColor=none;fillColor=none;align=center;verticalAlign=middle;whiteSpace=wrap;rounded=0;" vertex="1" parent="1">
          <mxGeometry x="920" y="311.25" width="60" height="30" as="geometry" />
        </mxCell>
        <mxCell id="JkQNoZzXG15EF7CzewIj-72" value="number_of_employees" style="text;html=1;strokeColor=none;fillColor=none;align=center;verticalAlign=middle;whiteSpace=wrap;rounded=0;" vertex="1" parent="1">
          <mxGeometry x="660" y="305" width="75" height="30" as="geometry" />
        </mxCell>
        <mxCell id="JkQNoZzXG15EF7CzewIj-73" value="name" style="text;html=1;strokeColor=none;fillColor=none;align=center;verticalAlign=middle;whiteSpace=wrap;rounded=0;" vertex="1" parent="1">
          <mxGeometry x="870" y="230" width="60" height="30" as="geometry" />
        </mxCell>
        <mxCell id="JkQNoZzXG15EF7CzewIj-74" value="number" style="text;html=1;strokeColor=none;fillColor=none;align=center;verticalAlign=middle;whiteSpace=wrap;rounded=0;" vertex="1" parent="1">
          <mxGeometry x="980" y="230" width="60" height="30" as="geometry" />
        </mxCell>
        <mxCell id="JkQNoZzXG15EF7CzewIj-75" value="" style="ellipse;whiteSpace=wrap;html=1;" vertex="1" parent="1">
          <mxGeometry x="900" y="155" width="115" height="46.25" as="geometry" />
        </mxCell>
        <mxCell id="JkQNoZzXG15EF7CzewIj-76" value="locations" style="text;html=1;strokeColor=none;fillColor=none;align=center;verticalAlign=middle;whiteSpace=wrap;rounded=0;" vertex="1" parent="1">
          <mxGeometry x="925" y="163.13" width="60" height="30" as="geometry" />
        </mxCell>
        <mxCell id="JkQNoZzXG15EF7CzewIj-77" value="" style="endArrow=none;html=1;rounded=0;entryX=0;entryY=1;entryDx=0;entryDy=0;exitX=0.609;exitY=-0.006;exitDx=0;exitDy=0;exitPerimeter=0;" edge="1" parent="1" source="JkQNoZzXG15EF7CzewIj-46">
          <mxGeometry width="50" height="50" relative="1" as="geometry">
            <mxPoint x="975" y="308.25" as="sourcePoint" />
            <mxPoint x="1010" y="265" as="targetPoint" />
          </mxGeometry>
        </mxCell>
        <mxCell id="JkQNoZzXG15EF7CzewIj-78" value="" style="endArrow=none;html=1;rounded=0;entryX=0.75;entryY=1;entryDx=0;entryDy=0;" edge="1" parent="1" target="JkQNoZzXG15EF7CzewIj-73">
          <mxGeometry width="50" height="50" relative="1" as="geometry">
            <mxPoint x="960" y="310" as="sourcePoint" />
            <mxPoint x="980" y="261.75" as="targetPoint" />
          </mxGeometry>
        </mxCell>
        <mxCell id="JkQNoZzXG15EF7CzewIj-79" value="" style="endArrow=none;html=1;rounded=0;entryX=0.5;entryY=1;entryDx=0;entryDy=0;" edge="1" parent="1" target="JkQNoZzXG15EF7CzewIj-75">
          <mxGeometry width="50" height="50" relative="1" as="geometry">
            <mxPoint x="960" y="306.25" as="sourcePoint" />
            <mxPoint x="995" y="263" as="targetPoint" />
          </mxGeometry>
        </mxCell>
        <mxCell id="JkQNoZzXG15EF7CzewIj-80" value="" style="endArrow=none;html=1;rounded=0;" edge="1" parent="1">
          <mxGeometry width="50" height="50" relative="1" as="geometry">
            <mxPoint x="950" y="395" as="sourcePoint" />
            <mxPoint x="950" y="350" as="targetPoint" />
          </mxGeometry>
        </mxCell>
        <mxCell id="JkQNoZzXG15EF7CzewIj-82" value="" style="ellipse;whiteSpace=wrap;html=1;" vertex="1" parent="1">
          <mxGeometry x="820" y="600" width="75" height="46.25" as="geometry" />
        </mxCell>
        <mxCell id="JkQNoZzXG15EF7CzewIj-84" value="name" style="text;html=1;strokeColor=none;fillColor=none;align=center;verticalAlign=middle;whiteSpace=wrap;rounded=0;" vertex="1" parent="1">
          <mxGeometry x="827.5" y="608.13" width="60" height="30" as="geometry" />
        </mxCell>
        <mxCell id="JkQNoZzXG15EF7CzewIj-85" value="" style="endArrow=none;html=1;rounded=0;" edge="1" parent="1">
          <mxGeometry width="50" height="50" relative="1" as="geometry">
            <mxPoint x="882.5" y="608.13" as="sourcePoint" />
            <mxPoint x="940" y="570" as="targetPoint" />
          </mxGeometry>
        </mxCell>
        <mxCell id="JkQNoZzXG15EF7CzewIj-86" value="" style="endArrow=none;html=1;rounded=0;entryX=0.5;entryY=1;entryDx=0;entryDy=0;" edge="1" parent="1" target="JkQNoZzXG15EF7CzewIj-47">
          <mxGeometry width="50" height="50" relative="1" as="geometry">
            <mxPoint x="950" y="530" as="sourcePoint" />
            <mxPoint x="997.5" y="491.87" as="targetPoint" />
          </mxGeometry>
        </mxCell>
        <mxCell id="JkQNoZzXG15EF7CzewIj-88" value="" style="endArrow=none;html=1;rounded=0;entryX=1;entryY=0.5;entryDx=0;entryDy=0;exitX=0;exitY=0.5;exitDx=0;exitDy=0;" edge="1" parent="1" source="JkQNoZzXG15EF7CzewIj-46" target="JkQNoZzXG15EF7CzewIj-44">
          <mxGeometry width="50" height="50" relative="1" as="geometry">
            <mxPoint x="970" y="316.25" as="sourcePoint" />
            <mxPoint x="968" y="211" as="targetPoint" />
          </mxGeometry>
        </mxCell>
        <mxCell id="JkQNoZzXG15EF7CzewIj-89" value="" style="ellipse;whiteSpace=wrap;html=1;" vertex="1" parent="1">
          <mxGeometry x="887.5" y="670" width="75" height="46.25" as="geometry" />
        </mxCell>
        <mxCell id="JkQNoZzXG15EF7CzewIj-90" value="number" style="text;html=1;strokeColor=none;fillColor=none;align=center;verticalAlign=middle;whiteSpace=wrap;rounded=0;" vertex="1" parent="1">
          <mxGeometry x="895" y="678.13" width="60" height="30" as="geometry" />
        </mxCell>
        <mxCell id="JkQNoZzXG15EF7CzewIj-91" value="" style="ellipse;whiteSpace=wrap;html=1;" vertex="1" parent="1">
          <mxGeometry x="985" y="670.01" width="75" height="46.25" as="geometry" />
        </mxCell>
        <mxCell id="JkQNoZzXG15EF7CzewIj-92" value="location" style="text;html=1;strokeColor=none;fillColor=none;align=center;verticalAlign=middle;whiteSpace=wrap;rounded=0;" vertex="1" parent="1">
          <mxGeometry x="992.5" y="678.14" width="60" height="30" as="geometry" />
        </mxCell>
        <mxCell id="JkQNoZzXG15EF7CzewIj-93" value="" style="endArrow=none;html=1;rounded=0;entryX=0.369;entryY=1;entryDx=0;entryDy=0;entryPerimeter=0;exitX=0.5;exitY=0;exitDx=0;exitDy=0;" edge="1" parent="1" source="JkQNoZzXG15EF7CzewIj-89" target="JkQNoZzXG15EF7CzewIj-69">
          <mxGeometry width="50" height="50" relative="1" as="geometry">
            <mxPoint x="892.5" y="618.13" as="sourcePoint" />
            <mxPoint x="940" y="580" as="targetPoint" />
          </mxGeometry>
        </mxCell>
        <mxCell id="JkQNoZzXG15EF7CzewIj-94" value="" style="endArrow=none;html=1;rounded=0;entryX=0.5;entryY=1;entryDx=0;entryDy=0;entryPerimeter=0;" edge="1" parent="1" target="JkQNoZzXG15EF7CzewIj-49">
          <mxGeometry width="50" height="50" relative="1" as="geometry">
            <mxPoint x="1020" y="670" as="sourcePoint" />
            <mxPoint x="940" y="570" as="targetPoint" />
          </mxGeometry>
        </mxCell>
      </root>
    </mxGraphModel>
  </diagram>
</mxfile>
